<?xml version="1.0" standalone="no"?>
<!DOCTYPE svg PUBLIC "-//W3C//DTD SVG 20010904//EN"
 "http://www.w3.org/TR/2001/REC-SVG-20010904/DTD/svg10.dtd">
<svg version="1.0" xmlns="http://www.w3.org/2000/svg"
 width="192.000000pt" height="192.000000pt" viewBox="0 0 192.000000 192.000000"
 preserveAspectRatio="xMidYMid meet">
<metadata>
Created by potrace 1.11, written by Peter Selinger 2001-2013
</metadata>
<g transform="translate(0.000000,192.000000) scale(0.100000,-0.100000)"
fill="#000000" stroke="none">
<path d="M830 1910 c0 -8 -67 -25 -87 -21 -7 1 -13 -3 -13 -9 0 -6 -8 -10 -17
-9 -10 1 -31 -4 -48 -11 -16 -8 -35 -14 -42 -15 -6 0 -21 -9 -32 -19 -12 -11
-21 -15 -21 -10 0 5 -11 -4 -25 -20 -13 -16 -22 -32 -20 -37 3 -4 -4 -13 -16
-19 -11 -7 -19 -14 -16 -16 3 -3 -5 -15 -17 -27 -11 -12 -41 -46 -66 -75 -24
-29 -52 -55 -62 -58 -10 -3 -17 -8 -17 -12 1 -4 0 -9 -1 -12 -7 -13 -7 -96 -1
-105 10 -13 7 -325 -4 -348 -4 -10 -5 -21 -1 -24 3 -3 1 -12 -5 -20 -14 -16
-16 -73 -5 -92 9 -15 16 -66 20 -168 3 -60 1 -75 -15 -89 -10 -9 -16 -21 -13
-26 3 -5 0 -15 -6 -23 -7 -8 -10 -15 -6 -15 3 0 -1 -8 -9 -17 -9 -10 -27 -31
-40 -47 l-25 -29 0 -269 0 -268 710 2 c419 2 710 7 709 12 0 5 6 13 14 17 9 5
13 18 9 34 -2 14 0 25 5 25 11 0 10 -1 19 88 4 36 2 67 -4 75 -5 6 -8 22 -6
35 2 12 -1 22 -7 22 -5 0 -9 6 -8 13 3 27 -2 47 -12 47 -7 0 -22 12 -35 28
-13 15 -24 23 -24 18 0 -6 -13 3 -30 19 -29 28 -40 68 -20 80 5 3 6 13 3 22
-5 11 -3 14 6 9 9 -6 12 0 10 22 -2 16 1 36 7 43 6 8 10 62 9 127 -1 61 2 112
7 112 4 0 7 42 6 94 0 52 3 100 8 107 10 17 12 399 2 406 -5 2 -8 29 -8 59 0
33 -4 54 -11 54 -6 0 -9 9 -6 20 3 11 2 20 -3 20 -7 0 -20 35 -25 65 -2 15
-15 47 -31 78 -8 15 -13 31 -10 36 3 5 -1 12 -10 15 -9 4 -14 9 -11 12 3 3 -8
18 -24 33 -16 16 -29 33 -29 40 0 13 -3 13 -127 12 -51 0 -95 4 -98 8 -6 11
-375 12 -375 1z"/>
</g>
</svg>
